# File created by Blade
# Date/Time:  Tue Apr 07 20:45:22 2015
# Frame Rate: 120.000 fps
#------------------------------------------------------
:FULLY-SPECIFIED
:DEGREES
602
root 1.683978 34.209853 -5.692369 17.522590 -18.434809 -49.463064
Spine 2.344903 26.389317 31.161026
Head 6.732551 -4.892986 18.623372
LeftShoulder -22.004332 24.891614 32.666661
LeftArm 75.202774 -80.504642 -60.299236
LeftForeArm 14.623003 -0.000000 14.389072
LeftHand 8.438712 -0.000000 17.029668
LeftHandThumb1 -26.253704 0.000000 33.147579
RightShoulder -9.516212 30.424312 -33.123115
RightArm 69.772269 77.691486 107.462884
RightForeArm 42.578230 -0.000000 59.186850
RightHand 1.079703 -0.000000 29.604743
RightHandThumb1 -24.326973 -0.000000 -32.862282
LeftUpLeg -6.533238 -11.258367 43.283423
LeftLeg 23.003055 -0.000000 -0.000000
LeftFoot -21.205940 30.354425 -13.430965
LeftToeBase -8.044682 -0.000000 0.000000
RightUpLeg -134.088717 -55.936726 17.838675
RightLeg -11.655104 -0.000000 0.000000
RightFoot 38.732194 -24.237566 15.269955
RightToeBase 14.630522 -0.000000 -0.000000
603
root 1.644740 34.224772 -5.646839 17.421074 -18.548329 -49.571927
Spine 2.261754 26.318386 31.079956
Head 7.121452 -4.939925 19.061304
LeftShoulder -21.915738 24.756498 32.951193
LeftArm 77.098970 -80.730657 -62.064503
LeftForeArm 14.576736 -0.000000 14.678447
LeftHand 8.493234 -0.000000 17.306081
LeftHandThumb1 -26.253704 0.000000 33.147579
RightShoulder -9.534982 30.400986 -33.139206
RightArm 70.220322 77.593362 108.000792
RightForeArm 42.758971 -0.000000 59.190629
RightHand 1.062485 0.000000 29.672608
RightHandThumb1 -24.326973 -0.000000 -32.862282
LeftUpLeg -6.026236 -11.836366 43.221974
LeftLeg 22.758922 -0.000000 -0.000000
LeftFoot -21.306276 30.238778 -13.027684
LeftToeBase -8.283926 -0.000000 0.000000
RightUpLeg -134.195532 -55.940372 17.983623
RightLeg -11.861448 -0.000000 0.000000
RightFoot 38.731899 -24.357071 15.259128
RightToeBase 14.559622 -0.000000 -0.000000
604
root 1.609536 34.236562 -5.597231 17.363439 -18.754281 -49.667266
Spine 2.136474 26.335069 30.963389
Head 7.625015 -4.959655 19.475854
LeftShoulder -21.863908 24.694683 33.204393
LeftArm 80.156982 -80.876255 -64.951841
LeftForeArm 14.627572 -0.000000 15.004144
LeftHand 8.466965 0.000000 17.453323
LeftHandThumb1 -26.253704 0.000000 33.147579
RightShoulder -9.539132 30.382539 -33.151842
RightArm 70.694357 77.485561 108.637578
RightForeArm 42.827432 -0.000000 59.201120
RightHand 0.978213 0.000000 29.785012
RightHandThumb1 -24.326973 -0.000000 -32.862282
LeftUpLeg -5.525712 -12.327520 43.102032
LeftLeg 22.581469 -0.000000 -0.000000
LeftFoot -21.370411 30.153116 -12.610846
LeftToeBase -7.849965 -0.000000 0.000000
RightUpLeg -134.440295 -55.758032 18.238079
RightLeg -12.006538 -0.000000 0.000000
RightFoot 38.627393 -24.579965 15.490937
RightToeBase 14.800676 -0.000000 -0.000000
605
root 1.577511 34.242534 -5.540542 17.280600 -19.027741 -49.737173
Spine 2.026733 26.378623 30.838875
Head 8.214599 -4.954137 19.850868
LeftShoulder -21.786311 24.599478 33.485315
LeftArm 82.571402 -80.922899 -67.173786
LeftForeArm 14.645292 -0.000000 15.317904
LeftHand 8.543902 0.000000 17.491191
LeftHandThumb1 -26.253704 0.000000 33.147579
RightShoulder -9.516595 30.405189 -33.151758
RightArm 71.030148 77.380152 109.148209
RightForeArm 42.891541 -0.000000 59.162564
RightHand 0.892017 -0.000000 29.908908
RightHandThumb1 -24.326973 -0.000000 -32.862282
LeftUpLeg -4.999324 -12.809489 42.917876
LeftLeg 22.458937 -0.000000 -0.000000
LeftFoot -21.488783 30.016566 -12.489837
LeftToeBase -7.257337 -0.000000 0.000000
RightUpLeg -134.643984 -55.552230 18.408450
RightLeg -12.018832 -0.000000 0.000000
RightFoot 38.509838 -24.538303 15.732918
RightToeBase 14.653636 -0.000000 -0.000000
606
root 1.548915 34.243009 -5.480442 17.201656 -19.367981 -49.762493
Spine 1.910906 26.470771 30.670586
Head 8.838907 -4.951070 20.202452
LeftShoulder -21.735749 24.532689 33.707097
LeftArm 84.507081 -80.908788 -68.802208
LeftForeArm 14.647836 -0.000000 15.585003
LeftHand 8.531036 -0.000000 17.511711
LeftHandThumb1 -26.253704 0.000000 33.147579
RightShoulder -9.507500 30.628054 -33.183604
RightArm 70.075203 77.344200 108.412713
RightForeArm 42.947506 -0.000000 59.141668
RightHand 0.887127 0.000000 29.958167
RightHandThumb1 -24.326973 -0.000000 -32.862282
LeftUpLeg -4.486275 -13.189557 42.652522
LeftLeg 22.353814 -0.000000 -0.000000
LeftFoot -21.161091 30.271580 -12.001143
LeftToeBase -7.061547 -0.000000 0.000000
RightUpLeg -134.857954 -55.283417 18.523911
RightLeg -11.986946 -0.000000 0.000000
RightFoot 38.410202 -24.528773 16.018210
RightToeBase 14.767886 -0.000000 -0.000000
607
root 1.525956 34.237979 -5.418246 17.125547 -19.714112 -49.756544
Spine 1.778360 26.594414 30.500257
Head 9.486533 -4.963362 20.488055
LeftShoulder -21.651982 24.435602 33.930213
LeftArm 85.834677 -80.828378 -69.772730
LeftForeArm 14.586319 -0.000000 15.767621
LeftHand 8.669895 -0.000000 17.729961
LeftHandThumb1 -26.253704 0.000000 33.147579
RightShoulder -9.527866 30.870968 -33.227973
RightArm 68.970210 77.311906 107.538919
RightForeArm 42.944757 -0.000000 59.124577
RightHand 0.895331 -0.000000 30.123584
RightHandThumb1 -24.326973 -0.000000 -32.862282
LeftUpLeg -4.040274 -13.494409 42.356861
LeftLeg 22.308031 -0.000000 -0.000000
LeftFoot -20.744103 30.742226 -11.628641
LeftToeBase -7.216222 -0.000000 0.000000
RightUpLeg -135.061614 -54.999518 18.612114
RightLeg -11.981741 -0.000000 0.000000
RightFoot 38.428172 -24.674014 16.202582
RightToeBase 14.921687 -0.000000 -0.000000
608
root 1.504985 34.227932 -5.353982 17.041437 -20.070850 -49.760432
Spine 1.675542 26.730451 30.374207
Head 10.094264 -4.984307 20.719558
LeftShoulder -21.578927 24.347308 34.125521
LeftArm 86.535403 -80.734355 -70.079478
LeftForeArm 14.680389 -0.000000 15.937255
LeftHand 8.706133 0.000000 17.554427
LeftHandThumb1 -26.253704 0.000000 33.147579
RightShoulder -9.490424 30.833246 -33.181507
RightArm 68.939030 77.213122 107.638362
RightForeArm 42.991177 -0.000000 59.164169
RightHand 0.862479 -0.000000 29.965550
RightHandThumb1 -24.326973 -0.000000 -32.862282
LeftUpLeg -3.611973 -13.688722 42.090489
LeftLeg 22.302560 -0.000000 -0.000000
LeftFoot -20.524679 31.151422 -11.696248
LeftToeBase -6.940891 -0.000000 0.000000
RightUpLeg -135.122813 -54.808442 18.571402
RightLeg -11.957645 -0.000000 0.000000
RightFoot 38.469812 -24.672728 16.279601
RightToeBase 14.937159 -0.000000 -0.000000
609
root 1.487632 34.211834 -5.287686 16.954437 -20.375404 -49.719581
Spine 1.533253 26.829827 30.227472
Head 10.667985 -5.024368 20.899714
LeftShoulder -21.533702 24.336148 34.274259
LeftArm 87.076448 -80.630221 -70.189064
LeftForeArm 14.777777 -0.000000 16.070347
LeftHand 8.813506 -0.000000 17.488657
LeftHandThumb1 -26.253704 0.000000 33.147579
RightShoulder -9.434434 30.777007 -33.122918
RightArm 68.806993 77.150140 107.609393
RightForeArm 42.970948 -0.000000 59.201721
RightHand 0.919157 -0.000000 29.965692
RightHandThumb1 -24.326973 -0.000000 -32.862282
LeftUpLeg -3.282209 -13.737831 41.825029
LeftLeg 22.346914 -0.000000 -0.000000
LeftFoot -20.299150 31.472909 -11.727413
LeftToeBase -6.302131 -0.000000 0.000000
RightUpLeg -135.251126 -54.680595 18.566640
RightLeg -11.876096 -0.000000 0.000000
RightFoot 38.469352 -24.571728 16.330045
RightToeBase 14.749269 -0.000000 -0.000000
610
root 1.472075 34.193431 -5.221961 16.849454 -20.674168 -49.719799
Spine 1.471783 26.935541 30.175605
Head 11.115496 -5.046951 21.016782
LeftShoulder -21.497706 24.323039 34.382729
LeftArm 87.243301 -80.547401 -69.911219
LeftForeArm 14.835589 -0.000000 16.188947
LeftHand 8.934954 -0.000000 17.325911
LeftHandThumb1 -26.253704 0.000000 33.147579
RightShoulder -9.511902 30.747141 -33.204745
RightArm 67.602563 77.046942 106.574670
RightForeArm 43.143054 -0.000000 59.215470
RightHand 0.996116 -0.000000 29.890149
RightHandThumb1 -24.326973 -0.000000 -32.862282
LeftUpLeg -2.958277 -13.573499 41.622396
LeftLeg 22.437702 -0.000000 -0.000000
LeftFoot -20.018957 31.666797 -11.664608
LeftToeBase -6.514515 -0.000000 0.000000
RightUpLeg -135.257667 -54.556982 18.523149
RightLeg -11.892929 -0.000000 0.000000
RightFoot 38.500860 -24.715283 16.403172
RightToeBase 15.084458 -0.000000 -0.000000
611
root 1.459210 34.171097 -5.158375 16.751232 -20.919845 -49.701897
Spine 1.405705 27.000047 30.130553
Head 11.457448 -5.075664 21.089195
LeftShoulder -21.503854 24.365862 34.448678
LeftArm 87.036028 -80.479071 -69.244082
LeftForeArm 14.904805 -0.000000 16.270320
LeftHand 8.995147 -0.000000 17.200668
LeftHandThumb1 -26.253704 0.000000 33.147579
RightShoulder -9.523872 30.786035 -33.208072
RightArm 67.053358 77.014887 106.078462
RightForeArm 43.119802 -0.000000 59.260845
RightHand 1.029273 -0.000000 29.767949
RightHandThumb1 -24.326973 -0.000000 -32.862282
LeftUpLeg -2.726626 -13.312707 41.459103
LeftLeg 22.603238 -0.000000 -0.000000
LeftFoot -19.776843 31.768987 -11.670697
LeftToeBase -6.550868 -0.000000 0.000000
RightUpLeg -135.276397 -54.514693 18.496296
RightLeg -11.897651 -0.000000 0.000000
RightFoot 38.558127 -24.747729 16.405036
RightToeBase 15.066754 -0.000000 -0.000000
612
root 1.450138 34.146182 -5.095047 16.640784 -21.111055 -49.682706
Spine 1.364409 27.034182 30.125079
Head 11.659348 -5.070212 21.135327
LeftShoulder -21.506746 24.363316 34.507754
LeftArm 86.174728 -80.417782 -67.935856
LeftForeArm 14.935775 -0.000000 16.358327
LeftHand 9.012038 0.000000 17.015335
LeftHandThumb1 -26.253704 0.000000 33.147579
RightShoulder -9.576014 30.803252 -33.220354
RightArm 67.038704 76.953095 106.078647
RightForeArm 43.046618 -0.000000 59.289027
RightHand 0.961048 -0.000000 29.817415
RightHandThumb1 -24.326973 -0.000000 -32.862282
LeftUpLeg -2.543326 -13.004203 41.329344
LeftLeg 22.835607 -0.000000 -0.000000
LeftFoot -19.994668 31.631627 -11.985461
LeftToeBase -7.095326 -0.000000 0.000000
RightUpLeg -135.274876 -54.537648 18.489066
RightLeg -11.901651 -0.000000 0.000000
RightFoot 38.570489 -24.660045 16.351306
RightToeBase 15.137906 -0.000000 -0.000000
